# xmcd CD database file
#
# Track frame offsets:
#	150
#	24012
#	43615
#	76620
#	83112
#	103290
#	115607
#	133830
#	163930
#	194792
#	200652
#	221280
#
# Disc length: 3363 seconds
#
# Revision: 0
# Processed by: cddbd v1.5PL3 Copyright (c) Steve Scherf et al.
# Submitted via: CDex 1.51
#
DISCID=9f0d210c
DTITLE=Matthew Doyle, Tony Lewis - Stormbird
DYEAR=2000
DGENRE=New Age
TTITLE0=Stormbird
TTITLE1=Rattle Em Up
TTITLE2=Reflection, The Calm Before The Storm
TTITLE3=Storm (Part 1)
TTITLE4=Across The Sea
TTITLE5=Djara, The Rainbow
TTITLE6=Meeting Place
TTITLE7=First Light
TTITLE8=Voices In The Wind
TTITLE9=Storm (Part 2)
TTITLE10=After The Storm
TTITLE11=Beyond The Horizon
EXTD=YEAR: 2000
EXTT0=
EXTT1=
EXTT2=
EXTT3=
EXTT4=
EXTT5=
EXTT6=
EXTT7=
EXTT8=
EXTT9=
EXTT10=
EXTT11=
PLAYORDER=
